<svg width="206" height="51" viewBox="0 0 206 51" fill="none" xmlns="http://www.w3.org/2000/svg">
<path d="M60.2 10.925V12.575H68.95V10.925H60.2ZM62.85 27.825V29.425H69.85V27.825H62.85ZM62.825 23.675V25.175H69.875V23.675H62.825ZM59.075 15.575V17.25H72V15.575H59.075ZM64.075 8.225V16.65H65.825V8.225H64.075ZM70.7 8.875C68.225 14.675 63.95 19.225 58.525 21.925C58.875 22.3 59.475 23.05 59.7 23.45C65.2 20.425 69.65 15.625 72.4 9.375L70.7 8.875ZM63.425 19.675H62.75L61.7 20.775V30.9H63.425V21.25H69.8V19.675H63.425ZM69.05 19.675V30.55H70.875V19.675H69.05ZM73.05 9.45V31H74.925V11.2H80.525V9.45H73.05ZM80.05 9.45V10.025C79.25 12.05 77.85 15.45 76.5 18.05C79.15 20.225 79.95 22.125 79.95 23.7C79.95 24.625 79.775 25.35 79.175 25.675C78.875 25.85 78.45 25.95 78 25.975C77.45 26.025 76.7 26 75.9 25.925C76.2 26.425 76.425 27.25 76.45 27.75C77.225 27.8 78.125 27.8 78.8 27.725C79.45 27.65 80.025 27.475 80.475 27.175C81.4 26.575 81.775 25.425 81.75 23.875C81.75 22.075 81.075 20.1 78.45 17.775C79.675 15.475 81.025 12.575 82.075 10.225L80.725 9.35L80.425 9.45H80.05ZM105.3 7.9V12.575H107.275V7.9H105.3ZM105.325 13.175V31.075H107.25V13.175H105.325ZM95.125 11.475V13.3H117.65V11.475H95.125ZM97.7 16.725V27.9H99.575V18.55H114.125V16.725H97.7ZM113.4 16.725V25.525C113.4 25.875 113.275 25.975 112.825 26C112.4 26.025 110.875 26.025 109.175 25.975C109.45 26.5 109.75 27.25 109.825 27.825C111.975 27.825 113.375 27.8 114.25 27.5C115.075 27.175 115.325 26.6 115.325 25.525V16.725H113.4ZM139.775 10.65V12.3H153.775V10.65H139.775ZM140.675 27.95V29.625H153.875V27.95H140.675ZM146.475 8.025C146.4 10.325 146.15 13.35 145.875 15.2L147.55 15.425C147.875 13.5 148.2 10.525 148.4 8.125L146.475 8.025ZM139.825 16.075V31.025H141.525V16.075H139.825ZM145.1 19.225H150.775V21.2H145.1V19.225ZM145.1 22.55H150.775V24.55H145.1V22.55ZM145.1 15.925H150.775V17.875H145.1V15.925ZM143.45 14.5V25.95H152.475V14.5H143.45ZM131.025 13.425V15.2H139.15V13.425H131.025ZM134.55 8V30.975H136.275V8H134.55ZM134.5 14.475C133.8 18.05 132.175 22.4 130.525 24.65C130.825 25.05 131.275 25.775 131.475 26.25C133.225 23.75 134.875 18.825 135.65 14.875L134.5 14.475ZM136.15 16.6L135.3 17.4C135.925 18.375 137.7 21.375 138.25 22.65L139.3 21.25C138.825 20.5 136.7 17.3 136.15 16.6ZM176.825 8.775C176.65 12.1 176.65 24.125 166.45 29.325C167.025 29.75 167.65 30.325 167.975 30.8C178.325 25.175 178.7 12.7 178.9 8.775H176.825ZM178.825 9.275L177.025 9.45C177.2 11.75 177.9 25.725 188.5 30.8C188.8 30.275 189.375 29.65 189.925 29.225C179.625 24.5 178.9 11.225 178.825 9.275Z" fill="#464646"/>
<path d="M64.8262 44.0967H62.167V43.0234H64.8262C65.3411 43.0234 65.7581 42.9414 66.0771 42.7773C66.3962 42.6133 66.6286 42.3854 66.7744 42.0938C66.9248 41.8021 67 41.4694 67 41.0957C67 40.7539 66.9248 40.4326 66.7744 40.1318C66.6286 39.8311 66.3962 39.5895 66.0771 39.4072C65.7581 39.2204 65.3411 39.127 64.8262 39.127H62.4746V48H61.1553V38.0469H64.8262C65.5781 38.0469 66.2139 38.1768 66.7334 38.4365C67.2529 38.6963 67.6471 39.0563 67.916 39.5166C68.1849 39.9723 68.3193 40.4941 68.3193 41.082C68.3193 41.7201 68.1849 42.2646 67.916 42.7158C67.6471 43.167 67.2529 43.5111 66.7334 43.748C66.2139 43.9805 65.5781 44.0967 64.8262 44.0967ZM73.3399 37.5V48H72.0684V37.5H73.3399ZM81.9015 46.7354V42.9277C81.9015 42.6361 81.8423 42.3831 81.7238 42.1689C81.6099 41.9502 81.4367 41.7816 81.2043 41.6631C80.9718 41.5446 80.6847 41.4854 80.3429 41.4854C80.0239 41.4854 79.7436 41.54 79.5021 41.6494C79.2651 41.7588 79.0783 41.9023 78.9416 42.0801C78.8094 42.2578 78.7433 42.4492 78.7433 42.6543H77.4787C77.4787 42.39 77.547 42.1279 77.6838 41.8682C77.8205 41.6084 78.0164 41.3737 78.2716 41.1641C78.5314 40.9499 78.8413 40.7812 79.2013 40.6582C79.5659 40.5306 79.9715 40.4668 80.4181 40.4668C80.9559 40.4668 81.4298 40.5579 81.84 40.7402C82.2547 40.9225 82.5783 41.1982 82.8107 41.5674C83.0477 41.932 83.1662 42.39 83.1662 42.9414V46.3867C83.1662 46.6328 83.1867 46.8949 83.2277 47.1729C83.2733 47.4508 83.3393 47.6901 83.4259 47.8906V48H82.1066C82.0428 47.8542 81.9927 47.6605 81.9562 47.4189C81.9198 47.1729 81.9015 46.945 81.9015 46.7354ZM82.1203 43.5156L82.1339 44.4043H80.8556C80.4956 44.4043 80.1743 44.4339 79.8918 44.4932C79.6092 44.5479 79.3722 44.6322 79.1808 44.7461C78.9894 44.86 78.8436 45.0036 78.7433 45.1768C78.6431 45.3454 78.5929 45.5436 78.5929 45.7715C78.5929 46.0039 78.6453 46.2158 78.7502 46.4072C78.855 46.5986 79.0122 46.7513 79.2218 46.8652C79.436 46.9746 79.6981 47.0293 80.008 47.0293C80.3953 47.0293 80.7371 46.9473 81.0334 46.7832C81.3296 46.6191 81.5643 46.4186 81.7375 46.1816C81.9152 45.9447 82.0109 45.7145 82.0246 45.4912L82.5646 46.0996C82.5327 46.291 82.4461 46.5029 82.3048 46.7354C82.1636 46.9678 81.9744 47.1911 81.7375 47.4053C81.505 47.6149 81.227 47.7904 80.9035 47.9316C80.5845 48.0684 80.2244 48.1367 79.8234 48.1367C79.3221 48.1367 78.8823 48.0387 78.5041 47.8428C78.1304 47.6468 77.8387 47.3848 77.6291 47.0566C77.424 46.724 77.3214 46.3525 77.3214 45.9424C77.3214 45.5459 77.3989 45.1973 77.5539 44.8965C77.7088 44.5911 77.9321 44.3382 78.2238 44.1377C78.5155 43.9326 78.8664 43.7777 79.2765 43.6729C79.6867 43.568 80.1447 43.5156 80.6505 43.5156H82.1203ZM88.5901 42.1826V48H87.3254V40.6035H88.5217L88.5901 42.1826ZM88.2893 44.0215L87.7629 44.001C87.7675 43.4951 87.8427 43.028 87.9885 42.5996C88.1343 42.1667 88.3394 41.7907 88.6038 41.4717C88.8681 41.1527 89.1825 40.9066 89.5471 40.7334C89.9163 40.5557 90.3241 40.4668 90.7707 40.4668C91.1353 40.4668 91.4635 40.5169 91.7551 40.6172C92.0468 40.7129 92.2952 40.8678 92.5002 41.082C92.7099 41.2962 92.8694 41.5742 92.9788 41.916C93.0881 42.2533 93.1428 42.6657 93.1428 43.1533V48H91.8713V43.1396C91.8713 42.7523 91.8144 42.4424 91.7004 42.21C91.5865 41.973 91.4202 41.8021 91.2014 41.6973C90.9827 41.5879 90.7138 41.5332 90.3948 41.5332C90.0803 41.5332 89.7932 41.5993 89.5334 41.7314C89.2782 41.8636 89.0572 42.0459 88.8704 42.2783C88.6881 42.5107 88.5445 42.7773 88.4397 43.0781C88.3394 43.3743 88.2893 43.6888 88.2893 44.0215ZM100.33 40.6035V41.5742H96.3314V40.6035H100.33ZM97.6849 38.8057H98.9495V46.168C98.9495 46.4186 98.9883 46.6077 99.0657 46.7354C99.1432 46.863 99.2435 46.9473 99.3665 46.9883C99.4896 47.0293 99.6217 47.0498 99.763 47.0498C99.8678 47.0498 99.9772 47.0407 100.091 47.0225C100.21 46.9997 100.298 46.9814 100.358 46.9678L100.365 48C100.264 48.0319 100.132 48.0615 99.9681 48.0889C99.8086 48.1208 99.6149 48.1367 99.387 48.1367C99.0771 48.1367 98.7923 48.0752 98.5325 47.9521C98.2728 47.8291 98.0654 47.624 97.9105 47.3369C97.7601 47.0452 97.6849 46.6533 97.6849 46.1611V38.8057ZM107.053 48.1367C106.538 48.1367 106.071 48.0501 105.652 47.877C105.237 47.6992 104.879 47.4508 104.579 47.1318C104.282 46.8128 104.054 46.4346 103.895 45.9971C103.735 45.5596 103.656 45.0811 103.656 44.5615V44.2744C103.656 43.6729 103.745 43.1374 103.922 42.668C104.1 42.194 104.342 41.793 104.647 41.4648C104.952 41.1367 105.299 40.8883 105.686 40.7197C106.073 40.5511 106.474 40.4668 106.889 40.4668C107.418 40.4668 107.873 40.5579 108.256 40.7402C108.644 40.9225 108.96 41.1777 109.206 41.5059C109.453 41.8294 109.635 42.2122 109.753 42.6543C109.872 43.0918 109.931 43.5703 109.931 44.0898V44.6572H104.408V43.625H108.666V43.5293C108.648 43.2012 108.58 42.8822 108.461 42.5723C108.347 42.2624 108.165 42.0072 107.914 41.8066C107.664 41.6061 107.322 41.5059 106.889 41.5059C106.602 41.5059 106.338 41.5674 106.096 41.6904C105.855 41.8089 105.647 41.9867 105.474 42.2236C105.301 42.4606 105.166 42.75 105.071 43.0918C104.975 43.4336 104.927 43.8278 104.927 44.2744V44.5615C104.927 44.9124 104.975 45.2428 105.071 45.5527C105.171 45.8581 105.315 46.127 105.501 46.3594C105.693 46.5918 105.923 46.7741 106.192 46.9062C106.465 47.0384 106.775 47.1045 107.121 47.1045C107.568 47.1045 107.946 47.0133 108.256 46.8311C108.566 46.6488 108.837 46.4049 109.07 46.0996L109.835 46.708C109.676 46.9495 109.473 47.1797 109.227 47.3984C108.981 47.6172 108.678 47.7949 108.318 47.9316C107.962 48.0684 107.541 48.1367 107.053 48.1367ZM114.842 41.7656V48H113.578V40.6035H114.808L114.842 41.7656ZM117.153 40.5625L117.146 41.7383C117.041 41.7155 116.941 41.7018 116.845 41.6973C116.754 41.6882 116.649 41.6836 116.531 41.6836C116.239 41.6836 115.982 41.7292 115.758 41.8203C115.535 41.9115 115.346 42.0391 115.191 42.2031C115.036 42.3672 114.913 42.5632 114.822 42.791C114.735 43.0143 114.678 43.2604 114.651 43.5293L114.295 43.7344C114.295 43.2878 114.339 42.8685 114.425 42.4766C114.516 42.0846 114.655 41.7383 114.842 41.4375C115.029 41.1322 115.266 40.8952 115.553 40.7266C115.845 40.5534 116.191 40.4668 116.592 40.4668C116.683 40.4668 116.788 40.4782 116.907 40.501C117.025 40.5192 117.107 40.5397 117.153 40.5625ZM124.798 46.0381C124.798 45.8558 124.757 45.6872 124.675 45.5322C124.598 45.3727 124.436 45.2292 124.19 45.1016C123.948 44.9694 123.584 44.8555 123.096 44.7598C122.686 44.6732 122.315 44.5706 121.982 44.4521C121.654 44.3337 121.374 44.1901 121.141 44.0215C120.913 43.8529 120.738 43.6546 120.615 43.4268C120.492 43.1989 120.43 42.9323 120.43 42.627C120.43 42.3353 120.494 42.0596 120.622 41.7998C120.754 41.54 120.938 41.3099 121.175 41.1094C121.417 40.9089 121.706 40.7516 122.044 40.6377C122.381 40.5238 122.757 40.4668 123.171 40.4668C123.764 40.4668 124.27 40.5716 124.689 40.7812C125.108 40.9909 125.43 41.2712 125.653 41.6221C125.876 41.9684 125.988 42.3535 125.988 42.7773H124.723C124.723 42.5723 124.662 42.374 124.539 42.1826C124.42 41.9867 124.245 41.8249 124.012 41.6973C123.784 41.5697 123.504 41.5059 123.171 41.5059C122.821 41.5059 122.536 41.5605 122.317 41.6699C122.103 41.7747 121.946 41.9092 121.845 42.0732C121.75 42.2373 121.702 42.4105 121.702 42.5928C121.702 42.7295 121.725 42.8525 121.77 42.9619C121.82 43.0667 121.907 43.1647 122.03 43.2559C122.153 43.3424 122.326 43.4245 122.549 43.502C122.773 43.5794 123.058 43.6569 123.404 43.7344C124.01 43.8711 124.509 44.0352 124.901 44.2266C125.293 44.418 125.585 44.6527 125.776 44.9307C125.967 45.2087 126.063 45.5459 126.063 45.9424C126.063 46.266 125.995 46.5622 125.858 46.8311C125.726 47.0999 125.532 47.3324 125.277 47.5283C125.026 47.7197 124.725 47.8701 124.375 47.9795C124.028 48.0843 123.639 48.1367 123.206 48.1367C122.554 48.1367 122.003 48.0205 121.551 47.7881C121.1 47.5557 120.758 47.2549 120.526 46.8857C120.294 46.5166 120.177 46.127 120.177 45.7168H121.449C121.467 46.0632 121.567 46.3389 121.75 46.5439C121.932 46.7445 122.155 46.888 122.419 46.9746C122.684 47.0566 122.946 47.0977 123.206 47.0977C123.552 47.0977 123.841 47.0521 124.074 46.9609C124.311 46.8698 124.491 46.7445 124.614 46.585C124.737 46.4255 124.798 46.2432 124.798 46.0381ZM135.202 44.3838V44.2266C135.202 43.6934 135.279 43.1989 135.434 42.7432C135.589 42.2829 135.813 41.8841 136.104 41.5469C136.396 41.2051 136.749 40.9408 137.164 40.7539C137.579 40.5625 138.043 40.4668 138.558 40.4668C139.078 40.4668 139.545 40.5625 139.96 40.7539C140.379 40.9408 140.734 41.2051 141.026 41.5469C141.322 41.8841 141.548 42.2829 141.703 42.7432C141.858 43.1989 141.935 43.6934 141.935 44.2266V44.3838C141.935 44.917 141.858 45.4115 141.703 45.8672C141.548 46.3229 141.322 46.7217 141.026 47.0635C140.734 47.4007 140.381 47.665 139.967 47.8564C139.556 48.0433 139.092 48.1367 138.572 48.1367C138.052 48.1367 137.585 48.0433 137.171 47.8564C136.756 47.665 136.4 47.4007 136.104 47.0635C135.813 46.7217 135.589 46.3229 135.434 45.8672C135.279 45.4115 135.202 44.917 135.202 44.3838ZM136.467 44.2266V44.3838C136.467 44.7529 136.51 45.1016 136.596 45.4297C136.683 45.7533 136.813 46.0404 136.986 46.291C137.164 46.5417 137.385 46.7399 137.649 46.8857C137.913 47.027 138.221 47.0977 138.572 47.0977C138.918 47.0977 139.221 47.027 139.481 46.8857C139.745 46.7399 139.964 46.5417 140.137 46.291C140.311 46.0404 140.44 45.7533 140.527 45.4297C140.618 45.1016 140.664 44.7529 140.664 44.3838V44.2266C140.664 43.862 140.618 43.5179 140.527 43.1943C140.44 42.8662 140.308 42.5768 140.131 42.3262C139.957 42.071 139.739 41.8704 139.474 41.7246C139.215 41.5788 138.909 41.5059 138.558 41.5059C138.212 41.5059 137.907 41.5788 137.642 41.7246C137.383 41.8704 137.164 42.071 136.986 42.3262C136.813 42.5768 136.683 42.8662 136.596 43.1943C136.51 43.5179 136.467 43.862 136.467 44.2266ZM147.578 48H146.313V39.8242C146.313 39.291 146.409 38.8421 146.6 38.4775C146.796 38.1084 147.077 37.8304 147.441 37.6436C147.806 37.4521 148.239 37.3564 148.74 37.3564C148.886 37.3564 149.032 37.3656 149.178 37.3838C149.328 37.402 149.474 37.4294 149.615 37.4658L149.547 38.498C149.451 38.4753 149.342 38.4593 149.219 38.4502C149.1 38.4411 148.982 38.4365 148.863 38.4365C148.594 38.4365 148.362 38.4912 148.166 38.6006C147.974 38.7054 147.829 38.8604 147.728 39.0654C147.628 39.2705 147.578 39.5234 147.578 39.8242V48ZM149.15 40.6035V41.5742H145.144V40.6035H149.15ZM164.571 44.835H165.884C165.815 45.4639 165.635 46.0267 165.344 46.5234C165.052 47.0202 164.64 47.4144 164.106 47.7061C163.573 47.9932 162.908 48.1367 162.11 48.1367C161.527 48.1367 160.996 48.0273 160.518 47.8086C160.044 47.5898 159.636 47.2799 159.294 46.8789C158.952 46.4733 158.688 45.988 158.501 45.4229C158.319 44.8532 158.228 44.2197 158.228 43.5225V42.5312C158.228 41.834 158.319 41.2028 158.501 40.6377C158.688 40.068 158.954 39.5804 159.301 39.1748C159.652 38.7692 160.073 38.457 160.565 38.2383C161.058 38.0195 161.611 37.9102 162.227 37.9102C162.978 37.9102 163.614 38.0514 164.134 38.334C164.653 38.6165 165.057 39.0085 165.344 39.5098C165.635 40.0065 165.815 40.583 165.884 41.2393H164.571C164.507 40.7744 164.389 40.3757 164.216 40.043C164.043 39.7057 163.797 39.446 163.478 39.2637C163.158 39.0814 162.741 38.9902 162.227 38.9902C161.784 38.9902 161.395 39.0745 161.058 39.2432C160.725 39.4118 160.445 39.651 160.217 39.9609C159.993 40.2708 159.825 40.6423 159.711 41.0752C159.597 41.5081 159.54 41.9889 159.54 42.5176V43.5225C159.54 44.0101 159.59 44.4681 159.69 44.8965C159.795 45.3249 159.952 45.7008 160.162 46.0244C160.372 46.348 160.638 46.6032 160.962 46.79C161.285 46.9723 161.668 47.0635 162.11 47.0635C162.671 47.0635 163.117 46.9746 163.45 46.7969C163.783 46.6191 164.033 46.3639 164.202 46.0312C164.375 45.6986 164.498 45.2998 164.571 44.835ZM171.267 38.0469V48H169.947V38.0469H171.267ZM178.741 40.6035V41.5742H174.742V40.6035H178.741ZM176.096 38.8057H177.36V46.168C177.36 46.4186 177.399 46.6077 177.477 46.7354C177.554 46.863 177.654 46.9473 177.777 46.9883C177.901 47.0293 178.033 47.0498 178.174 47.0498C178.279 47.0498 178.388 47.0407 178.502 47.0225C178.621 46.9997 178.709 46.9814 178.769 46.9678L178.776 48C178.675 48.0319 178.543 48.0615 178.379 48.0889C178.22 48.1208 178.026 48.1367 177.798 48.1367C177.488 48.1367 177.203 48.0752 176.943 47.9521C176.684 47.8291 176.476 47.624 176.321 47.3369C176.171 47.0452 176.096 46.6533 176.096 46.1611V38.8057ZM184.473 47.2344L186.53 40.6035H187.884L184.917 49.1416C184.849 49.3239 184.758 49.5199 184.644 49.7295C184.534 49.9437 184.393 50.1465 184.22 50.3379C184.047 50.5293 183.837 50.6842 183.591 50.8027C183.349 50.9258 183.06 50.9873 182.723 50.9873C182.623 50.9873 182.495 50.9736 182.34 50.9463C182.185 50.9189 182.076 50.8962 182.012 50.8779L182.005 49.8525C182.042 49.8571 182.099 49.8617 182.176 49.8662C182.258 49.8753 182.315 49.8799 182.347 49.8799C182.634 49.8799 182.878 49.8411 183.078 49.7637C183.279 49.6908 183.447 49.5654 183.584 49.3877C183.725 49.2145 183.846 48.9753 183.946 48.6699L184.473 47.2344ZM182.962 40.6035L184.883 46.3457L185.211 47.6787L184.302 48.1436L181.581 40.6035H182.962Z" fill="#7B7B7B"/>
<rect x="1.5" y="8.5" width="40" height="40" stroke="#3D5E42" stroke-width="3"/>
<path d="M0 18.0967H43" stroke="#3D5E42" stroke-width="3"/>
<line x1="11.2097" y1="7" x2="11.2097" y2="50" stroke="#3D5E42" stroke-width="3"/>
<line x1="20.9193" y1="7" x2="20.9193" y2="50" stroke="#3D5E42" stroke-width="3"/>
<line x1="43" y1="27.9194" x2="19.4193" y2="27.9194" stroke="#3D5E42" stroke-width="3"/>
<path d="M43 37.5161H30.5161V50" stroke="#3D5E42" stroke-width="3"/>
</svg>
